<svg xmlns="http://www.w3.org/2000/svg" width="905" height="905" viewBox="0 0 905 905" font-family="Helvetica,Arial,sans-serif">
<rect x="0" y="0" width="905" height="905" fill="white"/>
<line x1="68.8" y1="1220.8" x2="68.8" y2="-315.2" stroke="#f0f0f0" stroke-width="1"/>
<line x1="-315.2" y1="836.8" x2="1220.8" y2="836.8" stroke="#f0f0f0" stroke-width="1"/>
<line x1="116.8" y1="1220.8" x2="116.8" y2="-315.2" stroke="#f0f0f0" stroke-width="1"/>
<line x1="-315.2" y1="788.8" x2="1220.8" y2="788.8" stroke="#f0f0f0" stroke-width="1"/>
<line x1="164.8" y1="1220.8" x2="164.8" y2="-315.2" stroke="#f0f0f0" stroke-width="1"/>
<line x1="-315.2" y1="740.8" x2="1220.8" y2="740.8" stroke="#f0f0f0" stroke-width="1"/>
<line x1="212.8" y1="1220.8" x2="212.8" y2="-315.2" stroke="#f0f0f0" stroke-width="1"/>
<line x1="-315.2" y1="692.8" x2="1220.8" y2="692.8" stroke="#f0f0f0" stroke-width="1"/>
<line x1="260.8" y1="1220.8" x2="260.8" y2="-315.2" stroke="#f0f0f0" stroke-width="1"/>
<line x1="-315.2" y1="644.8" x2="1220.8" y2="644.8" stroke="#f0f0f0" stroke-width="1"/>
<line x1="308.8" y1="1220.8" x2="308.8" y2="-315.2" stroke="#f0f0f0" stroke-width="1"/>
<line x1="-315.2" y1="596.8" x2="1220.8" y2="596.8" stroke="#f0f0f0" stroke-width="1"/>
<line x1="356.8" y1="1220.8" x2="356.8" y2="-315.2" stroke="#f0f0f0" stroke-width="1"/>
<line x1="-315.2" y1="548.8" x2="1220.8" y2="548.8" stroke="#f0f0f0" stroke-width="1"/>
<line x1="404.8" y1="1220.8" x2="404.8" y2="-315.2" stroke="#f0f0f0" stroke-width="1"/>
<line x1="-315.2" y1="500.8" x2="1220.8" y2="500.8" stroke="#f0f0f0" stroke-width="1"/>
<line x1="452.8" y1="1220.8" x2="452.8" y2="-315.2" stroke="#f0f0f0" stroke-width="1"/>
<line x1="-315.2" y1="452.8" x2="1220.8" y2="452.8" stroke="#f0f0f0" stroke-width="1"/>
<line x1="500.8" y1="1220.8" x2="500.8" y2="-315.2" stroke="#f0f0f0" stroke-width="1"/>
<line x1="-315.2" y1="404.8" x2="1220.8" y2="404.8" stroke="#f0f0f0" stroke-width="1"/>
<line x1="548.8" y1="1220.8" x2="548.8" y2="-315.2" stroke="#f0f0f0" stroke-width="1"/>
<line x1="-315.2" y1="356.8" x2="1220.8" y2="356.8" stroke="#f0f0f0" stroke-width="1"/>
<line x1="596.8" y1="1220.8" x2="596.8" y2="-315.2" stroke="#f0f0f0" stroke-width="1"/>
<line x1="-315.2" y1="308.8" x2="1220.8" y2="308.8" stroke="#f0f0f0" stroke-width="1"/>
<line x1="644.8" y1="1220.8" x2="644.8" y2="-315.2" stroke="#f0f0f0" stroke-width="1"/>
<line x1="-315.2" y1="260.8" x2="1220.8" y2="260.8" stroke="#f0f0f0" stroke-width="1"/>
<line x1="692.8" y1="1220.8" x2="692.8" y2="-315.2" stroke="#f0f0f0" stroke-width="1"/>
<line x1="-315.2" y1="212.8" x2="1220.8" y2="212.8" stroke="#f0f0f0" stroke-width="1"/>
<line x1="740.8" y1="1220.8" x2="740.8" y2="-315.2" stroke="#f0f0f0" stroke-width="1"/>
<line x1="-315.2" y1="164.8" x2="1220.8" y2="164.8" stroke="#f0f0f0" stroke-width="1"/>
<line x1="788.8" y1="1220.8" x2="788.8" y2="-315.2" stroke="#f0f0f0" stroke-width="1"/>
<line x1="-315.2" y1="116.8" x2="1220.8" y2="116.8" stroke="#f0f0f0" stroke-width="1"/>
<line x1="836.8" y1="1220.8" x2="836.8" y2="-315.2" stroke="#f0f0f0" stroke-width="1"/>
<line x1="-315.2" y1="68.8" x2="1220.8" y2="68.8" stroke="#f0f0f0" stroke-width="1"/>
<circle cx="212.80" cy="68.80" r="7.69" fill="#2e7d32" fill-opacity="0.10" stroke="#2e7d32" stroke-width="0.6" stroke-opacity="0.35"/>
<circle cx="260.80" cy="116.80" r="23.48" fill="#2e7d32" fill-opacity="0.10" stroke="#2e7d32" stroke-width="0.6" stroke-opacity="0.35"/>
<circle cx="260.80" cy="68.80" r="48.60" fill="#2e7d32" fill-opacity="0.10" stroke="#2e7d32" stroke-width="0.6" stroke-opacity="0.35"/>
<circle cx="308.80" cy="212.80" r="14.15" fill="#2e7d32" fill-opacity="0.10" stroke="#2e7d32" stroke-width="0.6" stroke-opacity="0.35"/>
<circle cx="308.80" cy="164.80" r="39.26" fill="#2e7d32" fill-opacity="0.10" stroke="#2e7d32" stroke-width="0.6" stroke-opacity="0.35"/>
<circle cx="308.80" cy="116.80" r="64.38" fill="#2e7d32" fill-opacity="0.10" stroke="#2e7d32" stroke-width="0.6" stroke-opacity="0.35"/>
<circle cx="308.80" cy="68.80" r="89.50" fill="#2e7d32" fill-opacity="0.10" stroke="#2e7d32" stroke-width="0.6" stroke-opacity="0.35"/>
<circle cx="356.80" cy="260.80" r="29.93" fill="#2e7d32" fill-opacity="0.10" stroke="#2e7d32" stroke-width="0.6" stroke-opacity="0.35"/>
<circle cx="356.80" cy="212.80" r="55.05" fill="#2e7d32" fill-opacity="0.10" stroke="#2e7d32" stroke-width="0.6" stroke-opacity="0.35"/>
<circle cx="356.80" cy="164.80" r="64.73" fill="#2e7d32" fill-opacity="0.10" stroke="#2e7d32" stroke-width="0.6" stroke-opacity="0.35"/>
<circle cx="356.80" cy="116.80" r="62.87" fill="#2e7d32" fill-opacity="0.10" stroke="#2e7d32" stroke-width="0.6" stroke-opacity="0.35"/>
<circle cx="356.80" cy="68.80" r="61.00" fill="#2e7d32" fill-opacity="0.10" stroke="#2e7d32" stroke-width="0.6" stroke-opacity="0.35"/>
<circle cx="404.80" cy="260.80" r="20.50" fill="#2e7d32" fill-opacity="0.10" stroke="#2e7d32" stroke-width="0.6" stroke-opacity="0.35"/>
<circle cx="404.80" cy="212.80" r="18.64" fill="#2e7d32" fill-opacity="0.10" stroke="#2e7d32" stroke-width="0.6" stroke-opacity="0.35"/>
<circle cx="404.80" cy="164.80" r="16.77" fill="#2e7d32" fill-opacity="0.10" stroke="#2e7d32" stroke-width="0.6" stroke-opacity="0.35"/>
<circle cx="404.80" cy="116.80" r="14.90" fill="#2e7d32" fill-opacity="0.10" stroke="#2e7d32" stroke-width="0.6" stroke-opacity="0.35"/>
<circle cx="404.80" cy="68.80" r="13.04" fill="#2e7d32" fill-opacity="0.10" stroke="#2e7d32" stroke-width="0.6" stroke-opacity="0.35"/>
<line x1="432.33" y1="441.00" x2="384.18" y2="-796.46" stroke="black" stroke-width="2.5"/>
<line x1="432.33" y1="441.00" x2="-215.71" y2="-614.31" stroke="black" stroke-width="2.5"/>
<polyline points="431.21,412.22 430.60,412.25 429.99,412.30 429.37,412.36 428.76,412.42 428.16,412.51 427.55,412.60 426.94,412.71 426.34,412.83 425.74,412.97 425.15,413.11 424.55,413.27 423.96,413.45 423.38,413.63 422.80,413.83 422.22,414.04 421.65,414.26 421.08,414.49 420.52,414.74 419.96,415.00 419.41,415.27 418.86,415.55 418.32,415.84 417.79,416.14 417.26,416.46" fill="none" stroke="#1565c0" stroke-width="1.5" stroke-dasharray="3,2"/>
<circle cx="68.80" cy="836.80" r="2.0" fill="#9e9e9e"/>
<circle cx="68.80" cy="788.80" r="2.0" fill="#9e9e9e"/>
<circle cx="68.80" cy="740.80" r="2.0" fill="#9e9e9e"/>
<circle cx="68.80" cy="692.80" r="2.0" fill="#9e9e9e"/>
<circle cx="68.80" cy="644.80" r="2.0" fill="#9e9e9e"/>
<circle cx="68.80" cy="596.80" r="2.0" fill="#9e9e9e"/>
<circle cx="68.80" cy="548.80" r="2.0" fill="#9e9e9e"/>
<circle cx="68.80" cy="500.80" r="2.0" fill="#9e9e9e"/>
<circle cx="68.80" cy="452.80" r="2.0" fill="#9e9e9e"/>
<circle cx="68.80" cy="404.80" r="2.0" fill="#9e9e9e"/>
<circle cx="68.80" cy="356.80" r="2.0" fill="#9e9e9e"/>
<circle cx="68.80" cy="308.80" r="2.0" fill="#9e9e9e"/>
<circle cx="68.80" cy="260.80" r="2.0" fill="#9e9e9e"/>
<circle cx="68.80" cy="212.80" r="2.0" fill="#9e9e9e"/>
<circle cx="68.80" cy="164.80" r="2.0" fill="#9e9e9e"/>
<circle cx="68.80" cy="116.80" r="2.0" fill="#9e9e9e"/>
<circle cx="68.80" cy="68.80" r="2.0" fill="#9e9e9e"/>
<circle cx="116.80" cy="836.80" r="2.0" fill="#9e9e9e"/>
<circle cx="116.80" cy="788.80" r="2.0" fill="#9e9e9e"/>
<circle cx="116.80" cy="740.80" r="2.0" fill="#9e9e9e"/>
<circle cx="116.80" cy="692.80" r="2.0" fill="#9e9e9e"/>
<circle cx="116.80" cy="644.80" r="2.0" fill="#9e9e9e"/>
<circle cx="116.80" cy="596.80" r="2.0" fill="#9e9e9e"/>
<circle cx="116.80" cy="548.80" r="2.0" fill="#9e9e9e"/>
<circle cx="116.80" cy="500.80" r="2.0" fill="#9e9e9e"/>
<circle cx="116.80" cy="452.80" r="2.0" fill="#9e9e9e"/>
<circle cx="116.80" cy="404.80" r="2.0" fill="#9e9e9e"/>
<circle cx="116.80" cy="356.80" r="2.0" fill="#9e9e9e"/>
<circle cx="116.80" cy="308.80" r="2.0" fill="#9e9e9e"/>
<circle cx="116.80" cy="260.80" r="2.0" fill="#9e9e9e"/>
<circle cx="116.80" cy="212.80" r="2.0" fill="#9e9e9e"/>
<circle cx="116.80" cy="164.80" r="2.0" fill="#9e9e9e"/>
<circle cx="116.80" cy="116.80" r="2.0" fill="#9e9e9e"/>
<circle cx="116.80" cy="68.80" r="2.0" fill="#9e9e9e"/>
<circle cx="164.80" cy="836.80" r="2.0" fill="#9e9e9e"/>
<circle cx="164.80" cy="788.80" r="2.0" fill="#9e9e9e"/>
<circle cx="164.80" cy="740.80" r="2.0" fill="#9e9e9e"/>
<circle cx="164.80" cy="692.80" r="2.0" fill="#9e9e9e"/>
<circle cx="164.80" cy="644.80" r="2.0" fill="#9e9e9e"/>
<circle cx="164.80" cy="596.80" r="2.0" fill="#9e9e9e"/>
<circle cx="164.80" cy="548.80" r="2.0" fill="#9e9e9e"/>
<circle cx="164.80" cy="500.80" r="2.0" fill="#9e9e9e"/>
<circle cx="164.80" cy="452.80" r="2.0" fill="#9e9e9e"/>
<circle cx="164.80" cy="404.80" r="2.0" fill="#9e9e9e"/>
<circle cx="164.80" cy="356.80" r="2.0" fill="#9e9e9e"/>
<circle cx="164.80" cy="308.80" r="2.0" fill="#9e9e9e"/>
<circle cx="164.80" cy="260.80" r="2.0" fill="#9e9e9e"/>
<circle cx="164.80" cy="212.80" r="2.0" fill="#9e9e9e"/>
<circle cx="164.80" cy="164.80" r="2.0" fill="#9e9e9e"/>
<circle cx="164.80" cy="116.80" r="2.0" fill="#9e9e9e"/>
<circle cx="164.80" cy="68.80" r="2.6" fill="#f9a825"/>
<circle cx="212.80" cy="836.80" r="2.0" fill="#9e9e9e"/>
<circle cx="212.80" cy="788.80" r="2.0" fill="#9e9e9e"/>
<circle cx="212.80" cy="740.80" r="2.0" fill="#9e9e9e"/>
<circle cx="212.80" cy="692.80" r="2.0" fill="#9e9e9e"/>
<circle cx="212.80" cy="644.80" r="2.0" fill="#9e9e9e"/>
<circle cx="212.80" cy="596.80" r="2.0" fill="#9e9e9e"/>
<circle cx="212.80" cy="548.80" r="2.0" fill="#9e9e9e"/>
<circle cx="212.80" cy="500.80" r="2.0" fill="#9e9e9e"/>
<circle cx="212.80" cy="452.80" r="2.0" fill="#9e9e9e"/>
<circle cx="212.80" cy="404.80" r="2.0" fill="#9e9e9e"/>
<circle cx="212.80" cy="356.80" r="2.0" fill="#9e9e9e"/>
<circle cx="212.80" cy="308.80" r="2.0" fill="#9e9e9e"/>
<circle cx="212.80" cy="260.80" r="2.0" fill="#9e9e9e"/>
<circle cx="212.80" cy="212.80" r="2.0" fill="#9e9e9e"/>
<circle cx="212.80" cy="164.80" r="2.0" fill="#9e9e9e"/>
<circle cx="212.80" cy="116.80" r="2.6" fill="#f9a825"/>
<circle cx="212.80" cy="68.80" r="3.2" fill="#2e7d32"/>
<circle cx="260.80" cy="836.80" r="2.0" fill="#9e9e9e"/>
<circle cx="260.80" cy="788.80" r="2.0" fill="#9e9e9e"/>
<circle cx="260.80" cy="740.80" r="2.0" fill="#9e9e9e"/>
<circle cx="260.80" cy="692.80" r="2.0" fill="#9e9e9e"/>
<circle cx="260.80" cy="644.80" r="2.0" fill="#9e9e9e"/>
<circle cx="260.80" cy="596.80" r="2.0" fill="#9e9e9e"/>
<circle cx="260.80" cy="548.80" r="2.0" fill="#9e9e9e"/>
<circle cx="260.80" cy="500.80" r="2.0" fill="#9e9e9e"/>
<circle cx="260.80" cy="452.80" r="2.0" fill="#9e9e9e"/>
<circle cx="260.80" cy="404.80" r="2.0" fill="#9e9e9e"/>
<circle cx="260.80" cy="356.80" r="2.0" fill="#9e9e9e"/>
<circle cx="260.80" cy="308.80" r="2.0" fill="#9e9e9e"/>
<circle cx="260.80" cy="260.80" r="2.0" fill="#9e9e9e"/>
<circle cx="260.80" cy="212.80" r="2.6" fill="#f9a825"/>
<circle cx="260.80" cy="164.80" r="2.6" fill="#f9a825"/>
<circle cx="260.80" cy="116.80" r="3.2" fill="#2e7d32"/>
<circle cx="260.80" cy="68.80" r="3.2" fill="#2e7d32"/>
<circle cx="308.80" cy="836.80" r="2.0" fill="#9e9e9e"/>
<circle cx="308.80" cy="788.80" r="2.0" fill="#9e9e9e"/>
<circle cx="308.80" cy="740.80" r="2.0" fill="#9e9e9e"/>
<circle cx="308.80" cy="692.80" r="2.0" fill="#9e9e9e"/>
<circle cx="308.80" cy="644.80" r="2.0" fill="#9e9e9e"/>
<circle cx="308.80" cy="596.80" r="2.0" fill="#9e9e9e"/>
<circle cx="308.80" cy="548.80" r="2.0" fill="#9e9e9e"/>
<circle cx="308.80" cy="500.80" r="2.0" fill="#9e9e9e"/>
<circle cx="308.80" cy="452.80" r="2.0" fill="#9e9e9e"/>
<circle cx="308.80" cy="404.80" r="2.0" fill="#9e9e9e"/>
<circle cx="308.80" cy="356.80" r="2.0" fill="#9e9e9e"/>
<circle cx="308.80" cy="308.80" r="2.0" fill="#9e9e9e"/>
<circle cx="308.80" cy="260.80" r="2.6" fill="#f9a825"/>
<circle cx="308.80" cy="212.80" r="3.2" fill="#2e7d32"/>
<circle cx="308.80" cy="164.80" r="3.2" fill="#2e7d32"/>
<circle cx="308.80" cy="116.80" r="3.2" fill="#2e7d32"/>
<circle cx="308.80" cy="68.80" r="3.2" fill="#2e7d32"/>
<circle cx="356.80" cy="836.80" r="2.0" fill="#9e9e9e"/>
<circle cx="356.80" cy="788.80" r="2.0" fill="#9e9e9e"/>
<circle cx="356.80" cy="740.80" r="2.0" fill="#9e9e9e"/>
<circle cx="356.80" cy="692.80" r="2.0" fill="#9e9e9e"/>
<circle cx="356.80" cy="644.80" r="2.0" fill="#9e9e9e"/>
<circle cx="356.80" cy="596.80" r="2.0" fill="#9e9e9e"/>
<circle cx="356.80" cy="548.80" r="2.0" fill="#9e9e9e"/>
<circle cx="356.80" cy="500.80" r="2.0" fill="#9e9e9e"/>
<circle cx="356.80" cy="452.80" r="2.0" fill="#9e9e9e"/>
<circle cx="356.80" cy="404.80" r="2.0" fill="#9e9e9e"/>
<circle cx="356.80" cy="356.80" r="2.6" fill="#f9a825"/>
<circle cx="356.80" cy="308.80" r="4.0" fill="#c62828"/>
<circle cx="356.80" cy="260.80" r="3.2" fill="#2e7d32"/>
<circle cx="356.80" cy="212.80" r="3.2" fill="#2e7d32"/>
<circle cx="356.80" cy="164.80" r="3.2" fill="#2e7d32"/>
<circle cx="356.80" cy="116.80" r="3.2" fill="#2e7d32"/>
<circle cx="356.80" cy="68.80" r="3.2" fill="#2e7d32"/>
<circle cx="404.80" cy="836.80" r="2.0" fill="#9e9e9e"/>
<circle cx="404.80" cy="788.80" r="2.0" fill="#9e9e9e"/>
<circle cx="404.80" cy="740.80" r="2.0" fill="#9e9e9e"/>
<circle cx="404.80" cy="692.80" r="2.0" fill="#9e9e9e"/>
<circle cx="404.80" cy="644.80" r="2.0" fill="#9e9e9e"/>
<circle cx="404.80" cy="596.80" r="2.0" fill="#9e9e9e"/>
<circle cx="404.80" cy="548.80" r="2.0" fill="#9e9e9e"/>
<circle cx="404.80" cy="500.80" r="2.0" fill="#9e9e9e"/>
<circle cx="404.80" cy="452.80" r="2.6" fill="#f9a825"/>
<circle cx="404.80" cy="404.80" r="2.6" fill="#f9a825"/>
<circle cx="404.80" cy="356.80" r="4.0" fill="#c62828"/>
<circle cx="404.80" cy="308.80" r="4.0" fill="#c62828"/>
<circle cx="404.80" cy="260.80" r="3.2" fill="#2e7d32"/>
<circle cx="404.80" cy="212.80" r="3.2" fill="#2e7d32"/>
<circle cx="404.80" cy="164.80" r="3.2" fill="#2e7d32"/>
<circle cx="404.80" cy="116.80" r="3.2" fill="#2e7d32"/>
<circle cx="404.80" cy="68.80" r="3.2" fill="#2e7d32"/>
<circle cx="452.80" cy="836.80" r="2.0" fill="#9e9e9e"/>
<circle cx="452.80" cy="788.80" r="2.0" fill="#9e9e9e"/>
<circle cx="452.80" cy="740.80" r="2.0" fill="#9e9e9e"/>
<circle cx="452.80" cy="692.80" r="2.0" fill="#9e9e9e"/>
<circle cx="452.80" cy="644.80" r="2.0" fill="#9e9e9e"/>
<circle cx="452.80" cy="596.80" r="2.0" fill="#9e9e9e"/>
<circle cx="452.80" cy="548.80" r="2.0" fill="#9e9e9e"/>
<circle cx="452.80" cy="500.80" r="2.0" fill="#9e9e9e"/>
<circle cx="452.80" cy="452.80" r="2.6" fill="#f9a825"/>
<circle cx="452.80" cy="404.80" r="2.6" fill="#f9a825"/>
<circle cx="452.80" cy="356.80" r="2.6" fill="#f9a825"/>
<circle cx="452.80" cy="308.80" r="2.6" fill="#f9a825"/>
<circle cx="452.80" cy="260.80" r="2.6" fill="#f9a825"/>
<circle cx="452.80" cy="212.80" r="2.6" fill="#f9a825"/>
<circle cx="452.80" cy="164.80" r="2.6" fill="#f9a825"/>
<circle cx="452.80" cy="116.80" r="2.6" fill="#f9a825"/>
<circle cx="452.80" cy="68.80" r="2.0" fill="#9e9e9e"/>
<circle cx="500.80" cy="836.80" r="2.0" fill="#9e9e9e"/>
<circle cx="500.80" cy="788.80" r="2.0" fill="#9e9e9e"/>
<circle cx="500.80" cy="740.80" r="2.0" fill="#9e9e9e"/>
<circle cx="500.80" cy="692.80" r="2.0" fill="#9e9e9e"/>
<circle cx="500.80" cy="644.80" r="2.0" fill="#9e9e9e"/>
<circle cx="500.80" cy="596.80" r="2.0" fill="#9e9e9e"/>
<circle cx="500.80" cy="548.80" r="2.0" fill="#9e9e9e"/>
<circle cx="500.80" cy="500.80" r="2.0" fill="#9e9e9e"/>
<circle cx="500.80" cy="452.80" r="2.0" fill="#9e9e9e"/>
<circle cx="500.80" cy="404.80" r="2.0" fill="#9e9e9e"/>
<circle cx="500.80" cy="356.80" r="2.0" fill="#9e9e9e"/>
<circle cx="500.80" cy="308.80" r="2.0" fill="#9e9e9e"/>
<circle cx="500.80" cy="260.80" r="2.0" fill="#9e9e9e"/>
<circle cx="500.80" cy="212.80" r="2.0" fill="#9e9e9e"/>
<circle cx="500.80" cy="164.80" r="2.0" fill="#9e9e9e"/>
<circle cx="500.80" cy="116.80" r="2.0" fill="#9e9e9e"/>
<circle cx="500.80" cy="68.80" r="2.0" fill="#9e9e9e"/>
<circle cx="548.80" cy="836.80" r="2.0" fill="#9e9e9e"/>
<circle cx="548.80" cy="788.80" r="2.0" fill="#9e9e9e"/>
<circle cx="548.80" cy="740.80" r="2.0" fill="#9e9e9e"/>
<circle cx="548.80" cy="692.80" r="2.0" fill="#9e9e9e"/>
<circle cx="548.80" cy="644.80" r="2.0" fill="#9e9e9e"/>
<circle cx="548.80" cy="596.80" r="2.0" fill="#9e9e9e"/>
<circle cx="548.80" cy="548.80" r="2.0" fill="#9e9e9e"/>
<circle cx="548.80" cy="500.80" r="2.0" fill="#9e9e9e"/>
<circle cx="548.80" cy="452.80" r="2.0" fill="#9e9e9e"/>
<circle cx="548.80" cy="404.80" r="2.0" fill="#9e9e9e"/>
<circle cx="548.80" cy="356.80" r="2.0" fill="#9e9e9e"/>
<circle cx="548.80" cy="308.80" r="2.0" fill="#9e9e9e"/>
<circle cx="548.80" cy="260.80" r="2.0" fill="#9e9e9e"/>
<circle cx="548.80" cy="212.80" r="2.0" fill="#9e9e9e"/>
<circle cx="548.80" cy="164.80" r="2.0" fill="#9e9e9e"/>
<circle cx="548.80" cy="116.80" r="2.0" fill="#9e9e9e"/>
<circle cx="548.80" cy="68.80" r="2.0" fill="#9e9e9e"/>
<circle cx="596.80" cy="836.80" r="2.0" fill="#9e9e9e"/>
<circle cx="596.80" cy="788.80" r="2.0" fill="#9e9e9e"/>
<circle cx="596.80" cy="740.80" r="2.0" fill="#9e9e9e"/>
<circle cx="596.80" cy="692.80" r="2.0" fill="#9e9e9e"/>
<circle cx="596.80" cy="644.80" r="2.0" fill="#9e9e9e"/>
<circle cx="596.80" cy="596.80" r="2.0" fill="#9e9e9e"/>
<circle cx="596.80" cy="548.80" r="2.0" fill="#9e9e9e"/>
<circle cx="596.80" cy="500.80" r="2.0" fill="#9e9e9e"/>
<circle cx="596.80" cy="452.80" r="2.0" fill="#9e9e9e"/>
<circle cx="596.80" cy="404.80" r="2.0" fill="#9e9e9e"/>
<circle cx="596.80" cy="356.80" r="2.0" fill="#9e9e9e"/>
<circle cx="596.80" cy="308.80" r="2.0" fill="#9e9e9e"/>
<circle cx="596.80" cy="260.80" r="2.0" fill="#9e9e9e"/>
<circle cx="596.80" cy="212.80" r="2.0" fill="#9e9e9e"/>
<circle cx="596.80" cy="164.80" r="2.0" fill="#9e9e9e"/>
<circle cx="596.80" cy="116.80" r="2.0" fill="#9e9e9e"/>
<circle cx="596.80" cy="68.80" r="2.0" fill="#9e9e9e"/>
<circle cx="644.80" cy="836.80" r="2.0" fill="#9e9e9e"/>
<circle cx="644.80" cy="788.80" r="2.0" fill="#9e9e9e"/>
<circle cx="644.80" cy="740.80" r="2.0" fill="#9e9e9e"/>
<circle cx="644.80" cy="692.80" r="2.0" fill="#9e9e9e"/>
<circle cx="644.80" cy="644.80" r="2.0" fill="#9e9e9e"/>
<circle cx="644.80" cy="596.80" r="2.0" fill="#9e9e9e"/>
<circle cx="644.80" cy="548.80" r="2.0" fill="#9e9e9e"/>
<circle cx="644.80" cy="500.80" r="2.0" fill="#9e9e9e"/>
<circle cx="644.80" cy="452.80" r="2.0" fill="#9e9e9e"/>
<circle cx="644.80" cy="404.80" r="2.0" fill="#9e9e9e"/>
<circle cx="644.80" cy="356.80" r="2.0" fill="#9e9e9e"/>
<circle cx="644.80" cy="308.80" r="2.0" fill="#9e9e9e"/>
<circle cx="644.80" cy="260.80" r="2.0" fill="#9e9e9e"/>
<circle cx="644.80" cy="212.80" r="2.0" fill="#9e9e9e"/>
<circle cx="644.80" cy="164.80" r="2.0" fill="#9e9e9e"/>
<circle cx="644.80" cy="116.80" r="2.0" fill="#9e9e9e"/>
<circle cx="644.80" cy="68.80" r="2.0" fill="#9e9e9e"/>
<circle cx="692.80" cy="836.80" r="2.0" fill="#9e9e9e"/>
<circle cx="692.80" cy="788.80" r="2.0" fill="#9e9e9e"/>
<circle cx="692.80" cy="740.80" r="2.0" fill="#9e9e9e"/>
<circle cx="692.80" cy="692.80" r="2.0" fill="#9e9e9e"/>
<circle cx="692.80" cy="644.80" r="2.0" fill="#9e9e9e"/>
<circle cx="692.80" cy="596.80" r="2.0" fill="#9e9e9e"/>
<circle cx="692.80" cy="548.80" r="2.0" fill="#9e9e9e"/>
<circle cx="692.80" cy="500.80" r="2.0" fill="#9e9e9e"/>
<circle cx="692.80" cy="452.80" r="2.0" fill="#9e9e9e"/>
<circle cx="692.80" cy="404.80" r="2.0" fill="#9e9e9e"/>
<circle cx="692.80" cy="356.80" r="2.0" fill="#9e9e9e"/>
<circle cx="692.80" cy="308.80" r="2.0" fill="#9e9e9e"/>
<circle cx="692.80" cy="260.80" r="2.0" fill="#9e9e9e"/>
<circle cx="692.80" cy="212.80" r="2.0" fill="#9e9e9e"/>
<circle cx="692.80" cy="164.80" r="2.0" fill="#9e9e9e"/>
<circle cx="692.80" cy="116.80" r="2.0" fill="#9e9e9e"/>
<circle cx="692.80" cy="68.80" r="2.0" fill="#9e9e9e"/>
<circle cx="740.80" cy="836.80" r="2.0" fill="#9e9e9e"/>
<circle cx="740.80" cy="788.80" r="2.0" fill="#9e9e9e"/>
<circle cx="740.80" cy="740.80" r="2.0" fill="#9e9e9e"/>
<circle cx="740.80" cy="692.80" r="2.0" fill="#9e9e9e"/>
<circle cx="740.80" cy="644.80" r="2.0" fill="#9e9e9e"/>
<circle cx="740.80" cy="596.80" r="2.0" fill="#9e9e9e"/>
<circle cx="740.80" cy="548.80" r="2.0" fill="#9e9e9e"/>
<circle cx="740.80" cy="500.80" r="2.0" fill="#9e9e9e"/>
<circle cx="740.80" cy="452.80" r="2.0" fill="#9e9e9e"/>
<circle cx="740.80" cy="404.80" r="2.0" fill="#9e9e9e"/>
<circle cx="740.80" cy="356.80" r="2.0" fill="#9e9e9e"/>
<circle cx="740.80" cy="308.80" r="2.0" fill="#9e9e9e"/>
<circle cx="740.80" cy="260.80" r="2.0" fill="#9e9e9e"/>
<circle cx="740.80" cy="212.80" r="2.0" fill="#9e9e9e"/>
<circle cx="740.80" cy="164.80" r="2.0" fill="#9e9e9e"/>
<circle cx="740.80" cy="116.80" r="2.0" fill="#9e9e9e"/>
<circle cx="740.80" cy="68.80" r="2.0" fill="#9e9e9e"/>
<circle cx="788.80" cy="836.80" r="2.0" fill="#9e9e9e"/>
<circle cx="788.80" cy="788.80" r="2.0" fill="#9e9e9e"/>
<circle cx="788.80" cy="740.80" r="2.0" fill="#9e9e9e"/>
<circle cx="788.80" cy="692.80" r="2.0" fill="#9e9e9e"/>
<circle cx="788.80" cy="644.80" r="2.0" fill="#9e9e9e"/>
<circle cx="788.80" cy="596.80" r="2.0" fill="#9e9e9e"/>
<circle cx="788.80" cy="548.80" r="2.0" fill="#9e9e9e"/>
<circle cx="788.80" cy="500.80" r="2.0" fill="#9e9e9e"/>
<circle cx="788.80" cy="452.80" r="2.0" fill="#9e9e9e"/>
<circle cx="788.80" cy="404.80" r="2.0" fill="#9e9e9e"/>
<circle cx="788.80" cy="356.80" r="2.0" fill="#9e9e9e"/>
<circle cx="788.80" cy="308.80" r="2.0" fill="#9e9e9e"/>
<circle cx="788.80" cy="260.80" r="2.0" fill="#9e9e9e"/>
<circle cx="788.80" cy="212.80" r="2.0" fill="#9e9e9e"/>
<circle cx="788.80" cy="164.80" r="2.0" fill="#9e9e9e"/>
<circle cx="788.80" cy="116.80" r="2.0" fill="#9e9e9e"/>
<circle cx="788.80" cy="68.80" r="2.0" fill="#9e9e9e"/>
<circle cx="836.80" cy="836.80" r="2.0" fill="#9e9e9e"/>
<circle cx="836.80" cy="788.80" r="2.0" fill="#9e9e9e"/>
<circle cx="836.80" cy="740.80" r="2.0" fill="#9e9e9e"/>
<circle cx="836.80" cy="692.80" r="2.0" fill="#9e9e9e"/>
<circle cx="836.80" cy="644.80" r="2.0" fill="#9e9e9e"/>
<circle cx="836.80" cy="596.80" r="2.0" fill="#9e9e9e"/>
<circle cx="836.80" cy="548.80" r="2.0" fill="#9e9e9e"/>
<circle cx="836.80" cy="500.80" r="2.0" fill="#9e9e9e"/>
<circle cx="836.80" cy="452.80" r="2.0" fill="#9e9e9e"/>
<circle cx="836.80" cy="404.80" r="2.0" fill="#9e9e9e"/>
<circle cx="836.80" cy="356.80" r="2.0" fill="#9e9e9e"/>
<circle cx="836.80" cy="308.80" r="2.0" fill="#9e9e9e"/>
<circle cx="836.80" cy="260.80" r="2.0" fill="#9e9e9e"/>
<circle cx="836.80" cy="212.80" r="2.0" fill="#9e9e9e"/>
<circle cx="836.80" cy="164.80" r="2.0" fill="#9e9e9e"/>
<circle cx="836.80" cy="116.80" r="2.0" fill="#9e9e9e"/>
<circle cx="836.80" cy="68.80" r="2.0" fill="#9e9e9e"/>
<circle cx="260.80" cy="68.80" r="6" fill="none" stroke="black" stroke-width="1.4"/>
<circle cx="432.33" cy="441.00" r="3" fill="#1565c0"/>
<rect x="623" y="8" width="270" height="146" fill="white" fill-opacity="0.88" stroke="#cccccc"/>
<circle cx="635" cy="24" r="4.5" fill="#2e7d32"/>
<text x="649" y="28" font-size="13" fill="#222">certified exterior (+ its ball)</text>
<circle cx="635" cy="46" r="4.5" fill="#c62828"/>
<text x="649" y="50" font-size="13" fill="#222">truly exterior, uncertified (miss)</text>
<circle cx="635" cy="68" r="4.5" fill="#f9a825"/>
<text x="649" y="72" font-size="13" fill="#222">barrier, interior side</text>
<circle cx="635" cy="90" r="4.5" fill="#9e9e9e"/>
<text x="649" y="94" font-size="13" fill="#222">interior</text>
<circle cx="635" cy="112" r="4.5" fill="#bbbbbb"/>
<text x="649" y="116" font-size="13" fill="#222">exterior, out of band</text>
<circle cx="635" cy="134" r="4.5" fill="#1565c0"/>
<text x="649" y="138" font-size="13" fill="#222">wedge vertex</text>
<text x="40" y="891" font-size="13" fill="#444">narrow wedge, alpha=29.3 deg -- 3 misses, deepest UDF~0.47</text>
</svg>